<svg id="Calque_1" data-name="Calque 1" xmlns="http://www.w3.org/2000/svg" viewBox="0 0 95.25 30.84"><defs><style>.cls-1{fill:#dd0b18;}</style></defs><title>arms</title><path class="cls-1" d="M43.42,49.84H45V34.9H28.64l-2.92,6.54H2V57.61l17.87-6.32L16.32,63.84h7.29l2.28-7.74a9.35,9.35,0,0,0,4.8,1.52,6.53,6.53,0,0,0,1.73-.23,7.46,7.46,0,0,0,3.74-2.51,23.82,23.82,0,0,0,6.76,10.43l0.54,0.43L50,61.25l-0.93-.79A17.07,17.07,0,0,1,43.42,49.84ZM29.85,36.76H43.09v4.67H27.76ZM22.21,62H18.78L22,50.53l2-.69h1.8Zm9.72-6.38c-1.61.44-3.46,0-5.49-1.36l1.29-4.4h1.43a5.23,5.23,0,0,0,1.9,4.28l1.25-1.39A3.31,3.31,0,0,1,31,49.84H34.9c0.16,1,.35,1.9.57,2.77A6.25,6.25,0,0,1,31.93,55.6ZM23.66,48L3.87,55V43.3H43.09V48H23.66ZM43.57,63.39a24.67,24.67,0,0,1-6.79-13.56h4.74A18.8,18.8,0,0,0,47,61.06Z" transform="translate(-2 -34.9)"/><path class="cls-1" d="M91.65,41.43V43.3H87V36.56l-8,4.87H54.29V37.7H46.82V49.84h7.47V47H79.51V45.17H91.65V47h5.6v-5.6h-5.6Zm-39.22,0V48H48.69v-8.4h3.74v1.87Zm25.21,3.74H54.29V43.3H77.64v1.87Zm7.47-1.87H79.53l5.58-3.41V43.3Zm10.27,1.87H93.52V43.3h1.87v1.87Z" transform="translate(-2 -34.9)"/></svg>