<svg xmlns:dc="http://purl.org/dc/elements/1.1/" xmlns:cc="http://creativecommons.org/ns#" xmlns:rdf="http://www.w3.org/1999/02/22-rdf-syntax-ns#" xmlns:svg="http://www.w3.org/2000/svg" xmlns="http://www.w3.org/2000/svg" xmlns:sodipodi="http://sodipodi.sourceforge.net/DTD/sodipodi-0.dtd" xmlns:inkscape="http://www.inkscape.org/namespaces/inkscape" version="1.1" x="0px" y="0px" viewBox="0 0 97.8 122.25" enable-background="new 0 0 97.8 97.8" xml:space="preserve"><g transform="matrix(0.90486167,0.90486167,-0.90486167,0.90486167,-129.01427,-265.3457)"><path style="" d="m 245.97012,70.7018 c -2.27802,0 -4.12472,1.8467 -4.12472,4.12471 0,2.27801 1.8467,4.12471 4.12472,4.12471 2.27801,0 4.1247,-1.8467 4.1247,-4.12471 0,-2.27801 -1.84669,-4.12471 -4.1247,-4.12471 z m 22.38974,15.42366 c -2.27814,0 -4.12494,1.84679 -4.12494,4.12492 0,2.27814 1.8468,4.12494 4.12494,4.12494 2.27813,0 4.12492,-1.8468 4.12492,-4.12494 0,-2.27813 -1.84679,-4.12492 -4.12492,-4.12492 z M 255.75994,73.51649 c -2.27814,0 -4.12492,1.84679 -4.12492,4.12493 0,2.27813 1.84678,4.12493 4.12492,4.12493 2.27815,0 4.12493,-1.84681 4.12494,-4.12493 0,-2.27814 -1.84679,-4.12493 -4.12494,-4.12493 z m 9.84551,2.75895 c -2.27814,0 -4.12494,1.84679 -4.12494,4.12491 0,2.27815 1.8468,4.12495 4.12494,4.12495 2.27813,0 4.12492,-1.8468 4.12492,-4.12494 0,-2.27813 -1.84679,-4.12492 -4.12492,-4.12492 z m 5.55629,19.65262 c -2.27824,0 -4.12511,1.84688 -4.12511,4.12511 0,2.27823 1.84687,4.12511 4.12511,4.12511 2.27824,0 4.12512,-1.84688 4.12512,-4.12511 0,-2.27823 -1.84688,-4.12511 -4.12512,-4.12511 z m 2.801,9.80343 c -2.27824,0 -4.12512,1.84688 -4.12512,4.1251 0,2.27824 1.84688,4.12512 4.12512,4.12512 2.27824,0 4.12513,-1.84688 4.12513,-4.12512 0,-2.27822 -1.84689,-4.1251 -4.12513,-4.1251 z M 236.14945,67.91821 c -2.27822,0 -4.12511,1.84688 -4.12511,4.1251 0,2.27824 1.84689,4.12512 4.12511,4.12512 2.27823,0 4.12511,-1.84688 4.12511,-4.12512 0,-2.27822 -1.84688,-4.1251 -4.12511,-4.1251 z m 61.73844,9.53417 c 2.27794,0 4.12459,-1.8467 4.12459,-4.12471 0,-2.27801 -1.84665,-4.12471 -4.12459,-4.12471 -2.27797,0 -4.12466,1.8467 -4.12466,4.12471 0,2.27801 1.84669,4.12471 4.12466,4.12471 z M 275.4982,62.02872 c 2.27814,0 4.12493,-1.84679 4.12493,-4.12492 0,-2.27814 -1.84679,-4.12494 -4.12493,-4.12494 -2.27813,0 -4.12492,1.8468 -4.12492,4.12494 0,2.27813 1.84679,4.12492 4.12492,4.12492 z m 12.59989,12.60899 c 2.27814,0 4.12492,-1.84679 4.12492,-4.12493 0,-2.27813 -1.84678,-4.12493 -4.12492,-4.12493 -2.27814,0 -4.12492,1.8468 -4.12493,4.12493 0,2.27814 1.84679,4.12493 4.12493,4.12493 z m -9.8455,-2.75895 c 2.27813,0 4.12494,-1.84679 4.12494,-4.12492 0,-2.27814 -1.84681,-4.12494 -4.12494,-4.12494 -2.27813,0 -4.12492,1.8468 -4.12492,4.12494 0,2.27813 1.84679,4.12492 4.12492,4.12492 z m -5.55627,-19.65264 c 2.27824,0 4.12511,-1.84688 4.12511,-4.12511 0,-2.27823 -1.84687,-4.12511 -4.12511,-4.12511 -2.27824,0 -4.12512,1.84688 -4.12512,4.12511 0,2.27823 1.84688,4.12511 4.12512,4.12511 z m -2.801,-9.80343 c 2.27824,0 4.12512,-1.84688 4.12512,-4.1251 0,-2.27824 -1.84688,-4.12512 -4.12512,-4.12512 -2.27824,0 -4.12511,1.84688 -4.12511,4.12512 0,2.27822 1.84687,4.1251 4.12511,4.1251 z m 37.81304,37.81328 c 2.27823,0 4.12512,-1.84688 4.12512,-4.1251 0,-2.27824 -1.84689,-4.12512 -4.12512,-4.12512 -2.27823,0 -4.12508,1.84688 -4.12508,4.12512 0,2.27822 1.84685,4.1251 4.12508,4.1251 z" stroke="none" fill="#000000"/></g></svg>
